<?xml version="1.0" encoding="UTF-8"?>
<svg width="184px" height="64px" viewBox="0 0 184 64" version="1.1" xmlns="http://www.w3.org/2000/svg" xmlns:xlink="http://www.w3.org/1999/xlink">
    <title>logo/europcar-green</title>
    <g id="Page-1" stroke="none" stroke-width="1" fill="none" fill-rule="evenodd">
        <g id="Group">
            <g fill="#009900" id="colour-/-brand-/-green">
                <rect id="Box" x="0" y="0" width="184" height="64"></rect>
            </g>
            <g id="europcar-logo">
                <rect id="Rectangle-path" x="0" y="0" width="184" height="64"></rect>
                <g id="bounding-box" transform="translate(20.553191, 15.515152)">
                    <path d="M70.379217,27.7647515 L69.5394723,32.2404848 L0.396187234,32.2404848 L0.396187234,31.5364848 C23.6409057,29.063459 47.0009029,27.8044726 70.379217,27.7647515 L70.379217,27.7647515 Z M77.7991149,27.7562182 C101.367949,27.7562182 131.400664,30.3034182 142.468068,31.4767515 L142.468068,31.4767515 L142.468068,32.2362182 L77.0842553,32.2362182 Z" id="Swoosh" fill="#FFDD00"></path>
                    <path d="M84.4955404,5.72741818 C88.8966638,5.72741818 89.809617,9.00421818 89.809617,11.7604848 C89.809617,14.5167515 88.0612255,23.4383515 81.1322553,23.4383515 C77.6397787,23.4383515 76.4210723,21.3732848 76.3478638,21.6890182 C75.9258383,23.3999515 74.5004255,32.2362182 74.5004255,32.2362182 L74.5004255,32.2362182 L69.5394723,32.2362182 L74.4487489,6.11568485 L79.5647319,6.11568485 C79.4665287,6.5147356 79.4045569,6.92169118 79.3795574,7.33168485 C79.3795574,7.77968485 80.094417,5.72741818 84.4955404,5.72741818 Z M120.505515,5.79568485 C127.305294,5.79568485 128.730706,7.79248485 128.412034,9.72528485 C128.239779,10.7876848 126.728238,17.7850182 126.603353,18.6852848 C126.478468,19.5855515 127.176102,19.2655515 127.176102,19.2655515 L127.176102,19.2655515 L126.271762,22.6788848 L123.687932,22.6788848 C121.741447,22.6788848 121.909396,21.7018182 121.457226,21.7018182 C121.005055,21.7018182 119.519353,23.6900848 115.897685,23.6900848 C112.594689,23.6900848 110.583609,21.4415515 110.583609,18.6852848 C110.583609,15.9290182 113.365532,12.4602182 118.873396,12.4602182 L118.873396,12.4602182 L122.318502,12.4602182 C123.287438,12.4602182 124.643949,8.80368485 120.768204,8.80368485 C117.663302,8.80368485 117.465209,10.9882182 117.465209,10.9882182 L117.465209,10.9882182 L112.926281,10.9882182 C112.926281,10.9882182 112.865991,5.79568485 120.505515,5.79568485 Z M102.491915,5.35621818 C111.057311,5.35621818 109.774009,12.4559515 109.774009,12.4559515 L109.774009,12.4559515 L104.787217,12.4559515 C104.787217,12.4559515 105.252306,8.86768485 101.945004,8.86768485 C97.5352681,8.86768485 96.5060426,14.4868848 96.5060426,16.1722182 C96.5060426,17.8575515 97.5352681,19.5855515 99.4774468,19.5855515 C101.404026,19.6743051 103.162025,18.5027155 103.805362,16.7012848 L103.805362,16.7012848 L108.589753,16.7012848 C108.589753,19.0692848 105.40303,23.3658182 98.5472681,23.3658182 C95.3045617,23.3658182 91.6139915,21.6890182 91.6139915,16.3087515 C91.6139915,10.9284848 94.3959149,5.35621818 102.491915,5.35621818 Z M63.5234553,5.46715152 C68.4413447,5.46715152 70.7797106,7.66021818 70.7797106,11.8927515 C70.7797106,16.8335515 67.713566,23.3658182 59.9620766,23.3658182 C54.6523064,23.3658182 52.5163404,20.3663515 52.5163404,16.1935515 C52.5163404,12.0207515 54.8547064,5.46715152 63.5234553,5.46715152 Z M28.7106553,6.17541818 C28.7106553,6.17541818 27.0268596,14.9860848 26.8115404,16.0655515 L26.7917788,16.1649101 C26.5797787,17.237208 26.3542809,18.6895515 28.5340936,18.6895515 C30.7820255,18.6895515 31.8543149,17.6527515 32.5045787,14.9007515 C33.1548426,12.1487515 34.1280851,6.17541818 34.1280851,6.17541818 L34.1280851,6.17541818 L39.0244426,6.17541818 L35.9238468,22.6788848 L30.8337021,22.6788848 L31.0662468,21.6335515 C31.0662468,21.3135515 30.6226894,23.0970182 26.4756426,23.0970182 C22.3242894,23.0970182 20.9290213,20.9636848 21.510383,18.2458182 C22.0745191,15.6943515 23.6635745,6.17541818 23.6635745,6.17541818 L23.6635745,6.17541818 Z M47.9042043,6.17968485 L47.7018043,7.13968485 C47.7018043,7.58768485 48.9937191,6.23515152 51.1469106,6.23515152 L51.1469106,6.23515152 L53.3560851,6.23515152 L52.3139404,9.96421818 L49.6655149,9.96421818 C47.9171234,9.96421818 46.9524936,10.9284848 46.5606128,12.9124848 C46.1687319,14.8964848 44.5710638,22.6788848 44.5710638,22.6788848 L44.5710638,22.6788848 L39.6876255,22.6788848 L42.7796085,6.17968485 L47.9042043,6.17968485 Z M138.066945,6.17968485 L137.860238,7.13968485 C137.860238,7.58768485 139.152153,6.23515152 141.305345,6.23515152 L141.305345,6.23515152 L143.510213,6.23941818 L142.468068,9.96848485 L139.815336,9.96848485 C138.066945,9.96848485 137.098009,10.9284848 136.706128,12.9124848 C136.314247,14.8964848 134.742417,22.6788848 134.742417,22.6788848 L134.742417,22.6788848 L129.858979,22.6788848 L132.950962,6.17968485 L138.066945,6.17968485 Z M22.3242894,0.0228848485 L21.5577532,4.45595152 L9.71950638,4.45595152 L8.8797617,8.94448485 L19.4217872,8.94448485 L18.5906553,13.4372848 L7.84622979,13.4372848 L6.80408511,18.3652848 L18.5820426,18.3652848 L17.7896681,22.6746182 L0.396187234,22.6746182 L5.25809362,0.0228848485 L22.3242894,0.0228848485 Z M121.857719,15.4298182 C121.857719,15.4298182 120.109328,15.8095515 117.525498,16.1892848 C115.294791,16.5092848 114.554094,20.0292848 117.396306,20.0292848 L117.396306,20.0292848 C118.890621,20.0292848 121.870638,18.7535515 121.857719,15.4298182 Z M62.7396936,8.93595152 C58.5926468,8.93595152 57.4299234,14.3290182 57.4299234,15.4810182 L57.4299234,15.4810182 C57.4342298,16.6330182 57.369634,19.6026182 60.608034,19.6026182 C63.846434,19.6026182 65.7154043,15.5236848 65.7154043,12.7759515 C65.7154043,10.0282182 64.3588936,8.93595152 62.7396936,8.93595152 Z M82.2476085,9.51621818 C78.5656511,9.51621818 77.6440851,14.5167515 77.6440851,15.5407515 C77.6440851,16.5647515 77.7732766,19.1972848 80.2279149,19.1972848 C82.6825532,19.1972848 85.0123064,15.7967515 85.0295319,12.9722182 C85.0295319,11.2996848 84.9563234,9.51621818 82.2476085,9.51621818 Z" id="Europcar" fill="#FFFFFF"></path>
                </g>
            </g>
        </g>
    </g>
</svg>